<svg xmlns="http://www.w3.org/2000/svg" width="90.714" height="127" fill="none" viewBox="0 0 60 84"><path fill="#fff" d="M38.869 0l9.694 5.575-38.176 21.953-9.694-5.574L38.869 0zm10.085 6.745L11.018 28.551l-.001 11.032 37.936-21.805V6.745zM33.699 28.276l-22.601 12.99-.002 11.034 22.601-12.992.002-11.032zm-8.664 17.441l-13.99 8.042-.002 11.033 13.99-8.042.002-11.033zM.004 23.017l9.75 5.605-.003 11.035L0 34.053l.004-11.036zm.093 12.64l9.632 5.537-.004 11.035-9.632-5.536.004-11.036zM.092 48.221l9.636 5.539-.004 11.763-9.636-5.539.004-11.763zM21.564 84l-9.694-5.575 37.743-21.704 9.694 5.575L21.564 84zm-10.462-6.529l37.879-21.773.001-11.032-37.879 21.773-.001 11.032zM26.3 55.974l22.601-12.992.001-11.032-22.6 12.99-.002 11.034zm8.664-17.442l13.99-8.042.002-11.033-13.99 8.042-.002 11.033zm25.032 22.774l-9.75-5.605.003-11.035L60 50.271l-.004 11.035zm-.092-12.711l-9.633-5.537.004-11.035 9.633 5.536-.004 11.036zm.004-12.565l-9.636-5.538.004-11.552 9.636 5.539-.004 11.552z"/></svg>